<?xml version="1.0" encoding="utf-8"?>
<!-- Generator: Adobe Illustrator 16.0.0, SVG Export Plug-In . SVG Version: 6.00 Build 0)  -->
<!DOCTYPE svg PUBLIC "-//W3C//DTD SVG 1.1//EN" "http://www.w3.org/Graphics/SVG/1.1/DTD/svg11.dtd">
<svg version="1.1" id="Layer_1" xmlns="http://www.w3.org/2000/svg" xmlns:xlink="http://www.w3.org/1999/xlink" x="0px" y="0px"
	 width="255px" height="255px" viewBox="0 0 255 255" enable-background="new 0 0 255 255" xml:space="preserve">
<path fill="#1A1A1A" d="M187.208,104.523c-4.725-11.354-11.813-21.513-20.563-30.038c-8.933-8.868-19.177-15.586-30.551-20.226
	c-11.912-4.896-24.519-7.481-37.474-7.481c-12.867,0-25.558,2.586-37.386,7.481c-11.381,4.64-21.712,11.358-30.64,20.226
	c-8.663,8.524-15.584,18.684-20.573,30.038c-4.989,11.718-7.343,23.854-7.343,36.59c0,12.986,2.354,25.131,7.343,36.827
	c4.989,11.37,11.911,21.517,20.573,30.037c8.927,8.872,19.259,15.585,30.64,20.246c11.829,4.897,24.519,7.56,37.386,7.56
	c12.955,0,25.563-2.662,37.474-7.56c11.374-4.661,21.618-11.374,30.551-20.246c8.751-8.521,15.839-18.667,20.563-30.037
	c5.076-11.696,7.712-23.841,7.712-36.827C194.92,128.377,192.284,116.241,187.208,104.523 M144.236,185.956
	c-12.087,12.209-28.457,18.684-45.617,18.684s-33.44-6.475-45.618-18.684c-12.077-11.885-18.734-27.729-18.734-44.843
	c0-16.879,6.657-32.629,18.734-44.585C65.179,84.298,81.46,77.839,98.62,77.839s33.53,6.459,45.617,18.689
	c12.166,11.956,18.988,27.706,18.988,44.585C163.225,158.227,156.402,174.071,144.236,185.956"/>
<path fill="#FF5000" d="M239.809,83.396c-13.161,13.165-31.193,16.469-40.287,7.392c-9.076-9.099-5.768-27.131,7.381-40.286
	c13.165-13.16,31.197-16.469,40.286-7.392C256.282,52.204,252.973,70.242,239.809,83.396"/>
<path fill="#FF5000" d="M223.781,133.716c-9.95-3.636-15.989-12.145-13.486-19c2.503-6.878,12.597-9.497,22.535-5.867
	c9.956,3.613,15.988,12.121,13.496,18.975C243.818,134.702,233.735,137.334,223.781,133.716"/>
<path fill="#FF5000" d="M194.406,38.426c0,10.607-5.934,19.208-13.259,19.208c-7.326,0-13.266-8.602-13.266-19.208
	c0-10.608,5.939-19.21,13.266-19.21C188.473,19.216,194.406,27.818,194.406,38.426"/>
</svg>
